<svg width="16" height="16" viewBox="0 0 16 16" fill="none" xmlns="http://www.w3.org/2000/svg">
<path opacity="0.2" d="M7.99998 12.5C7.03936 12.5 5.45186 12.4888 3.62498 11.3975C1.79811 10.3063 1.20686 8.9375 1.01748 8.23875C0.999549 8.17605 0.994151 8.11042 1.0016 8.04563C1.00904 7.98083 1.02919 7.91814 1.06088 7.86114C1.09258 7.80414 1.1352 7.75394 1.1863 7.71343C1.23741 7.67291 1.29601 7.64286 1.35873 7.625C1.98976 7.46786 2.64798 7.45419 3.28498 7.585C2.80811 6.0925 3.03498 4.9325 3.22248 4.35313C3.26177 4.23369 3.34359 4.13287 3.45238 4.06983C3.56116 4.00679 3.68933 3.98595 3.81248 4.01125C4.28498 4.11188 5.07998 4.375 5.91248 5.05C5.63144 5.81817 5.49169 6.63084 5.49998 7.44875C5.49998 11.125 7.99998 12.5 7.99998 12.5ZM14.6412 7.625C14.0102 7.46786 13.352 7.45419 12.715 7.585C13.1919 6.0925 12.965 4.9325 12.7775 4.35313C12.7382 4.23369 12.6564 4.13287 12.5476 4.06983C12.4388 4.00679 12.3106 3.98595 12.1875 4.01125C11.7175 4.11188 10.9225 4.37375 10.09 5.05C10.3702 5.81832 10.5091 6.63099 10.5 7.44875C10.5 11.125 7.99998 12.5 7.99998 12.5C8.96061 12.5 10.5481 12.4888 12.375 11.3975C14.2019 10.3063 14.7931 8.93875 14.9825 8.23875C15.0004 8.17605 15.0058 8.11042 14.9984 8.04563C14.9909 7.98083 14.9708 7.91814 14.9391 7.86114C14.9074 7.80414 14.8648 7.75394 14.8137 7.71343C14.7626 7.67291 14.704 7.64286 14.6412 7.625Z" fill="#286157"/>
<path d="M15.3644 7.60187C15.3006 7.48982 15.2151 7.3916 15.113 7.31294C15.0108 7.23428 14.894 7.17677 14.7694 7.14375C14.3172 7.02736 13.85 6.98057 13.3837 7.005C13.6337 5.76438 13.4462 4.78313 13.255 4.20125C13.1788 3.96223 13.0162 3.76016 12.7991 3.63445C12.582 3.50873 12.3259 3.46838 12.0806 3.52125C11.4446 3.66285 10.8399 3.91958 10.2962 4.27875C9.89805 3.46543 9.31836 2.75444 8.60187 2.20062C8.42823 2.0704 8.21704 2 8 2C7.78295 2 7.57176 2.0704 7.39812 2.20062C6.68148 2.75428 6.10175 3.4653 5.70375 4.27875C5.16011 3.91958 4.55537 3.66285 3.91937 3.52125C3.67412 3.46838 3.41797 3.50873 3.20086 3.63445C2.98374 3.76016 2.82123 3.96223 2.745 4.20125C2.5575 4.78313 2.37 5.76375 2.61625 7.005C2.15 6.98057 1.68276 7.02736 1.23062 7.14375C1.10599 7.17677 0.989182 7.23428 0.887023 7.31294C0.784864 7.3916 0.6994 7.48982 0.635621 7.60187C0.568875 7.71666 0.525656 7.84359 0.508487 7.97525C0.491318 8.10692 0.500542 8.24069 0.535621 8.36875C0.747496 9.15437 1.39812 10.6488 3.36875 11.8263C5.33937 13.0038 7.07062 13 8.00312 13C8.93562 13 10.67 13 12.6281 11.8263C14.5987 10.6488 15.2494 9.15437 15.4612 8.36875C15.4968 8.24089 15.5065 8.10724 15.4899 7.97557C15.4733 7.84391 15.4306 7.71688 15.3644 7.60187ZM3.69625 4.50875C3.69699 4.50565 3.6989 4.50295 3.70157 4.50121C3.70424 4.49946 3.70748 4.49881 3.71062 4.49937C4.29219 4.6307 4.84101 4.87884 5.32375 5.22875C5.10398 5.94786 4.99481 6.6962 5 7.44812C5 8.61937 5.23562 9.57312 5.56937 10.3406C5.0949 9.86573 4.68436 9.33102 4.34812 8.75C3.22187 6.78875 3.45625 5.25 3.69625 4.50875ZM3.88375 10.9681C2.21687 9.97313 1.67625 8.75312 1.5 8.10625C1.95988 7.99299 2.4371 7.96818 2.90625 8.03312C3.06285 8.45268 3.25414 8.85846 3.47812 9.24625C4.02806 10.1943 4.74849 11.0326 5.60312 11.7188C4.9988 11.5449 4.4199 11.2926 3.88125 10.9681H3.88375ZM8 11.9C7.41687 11.4662 6 10.1356 6 7.44812C6 4.79375 7.39875 3.4525 8 3C8.60125 3.45375 10 4.795 10 7.44938C10 10.1356 8.58312 11.4662 8 11.9ZM10.6762 5.22875C11.159 4.87907 11.7078 4.63113 12.2894 4.5C12.2925 4.49943 12.2957 4.50009 12.2984 4.50183C12.3011 4.50357 12.303 4.50627 12.3037 4.50938C12.5437 5.25 12.7781 6.78875 11.6519 8.75C11.3159 9.3318 10.9054 9.86717 10.4306 10.3425C10.7644 9.57625 11 8.62125 11 7.45C11.0054 6.69745 10.8962 5.94846 10.6762 5.22875ZM14.5 8.1075C14.3269 8.74813 13.7875 9.97063 12.1194 10.9681C11.5807 11.2924 11.0018 11.5445 10.3975 11.7181C11.2521 11.0319 11.9726 10.1937 12.5225 9.24562C12.7465 8.85783 12.9378 8.45206 13.0944 8.0325C13.5634 7.96789 14.0404 7.99313 14.5 8.10688V8.1075Z" fill="#286157"/>
</svg>
